<svg viewBox="0 0 400 500" xmlns="http://www.w3.org/2000/svg">
    <!-- Restaurant theme background -->
    <rect x="0" y="0" width="400" height="500" fill="#f8f5f1"/>
    
    <!-- Main border with subtle pattern -->
    <rect x="10" y="10" width="380" height="480" fill="transparent" stroke="#8b4513" stroke-width="2" rx="8"/>
    
    <!-- Photo area -->
    <rect x="30" y="50" width="340" height="280" fill="#ffffff" stroke="#d4af37" stroke-width="3" rx="6"/>
    <rect id="Image1" x="35" y="55" width="330" height="270" fill="#e8e8e8" rx="3"/>
    
    <!-- Decorative food icon in corner -->
    <g transform="translate(340, 30)">
        <!-- Plate -->
        <circle cx="15" cy="15" r="12" fill="#ffffff" stroke="#d4af37" stroke-width="1.5"/>
        <circle cx="15" cy="15" r="8" fill="transparent" stroke="#8b4513" stroke-width="0.5"/>
        
        <!-- Food items on plate -->
        <circle cx="12" cy="12" r="2" fill="#ff6b6b"/>
        <circle cx="18" cy="13" r="1.5" fill="#4ecdc4"/>
        <circle cx="15" cy="17" r="1.8" fill="#ffd93d"/>
        
        <!-- Fork and knife -->
        <line x1="5" y1="8" x2="5" y2="22" stroke="#8b4513" stroke-width="1"/>
        <line x1="3" y1="10" x2="7" y2="10" stroke="#8b4513" stroke-width="0.5"/>
        <line x1="3" y1="12" x2="7" y2="12" stroke="#8b4513" stroke-width="0.5"/>
        
        <line x1="25" y1="8" x2="25" y2="20" stroke="#8b4513" stroke-width="1"/>
        <path d="M 23 8 L 27 8 L 25 12 Z" fill="#8b4513"/>
    </g>
    
    <!-- Text area background -->
    <rect x="30" y="350" width="340" height="120" fill="rgba(255,255,255,0.8)" stroke="#d4af37" stroke-width="1" rx="6"/>
    
    <!-- Restaurant text styling -->
    <text id="Text1" x="200" y="390" text-anchor="middle" font-family="serif" font-size="20" font-weight="bold" fill="#8b4513">Dining Experience</text>
    
    <!-- Decorative elements -->
    <line x1="60" y1="415" x2="120" y2="415" stroke="#d4af37" stroke-width="1" opacity="0.6"/>
    <line x1="280" y1="415" x2="340" y2="415" stroke="#d4af37" stroke-width="1" opacity="0.6"/>
    
    <!-- Corner decorations -->
    <circle cx="50" cy="470" r="3" fill="#d4af37" opacity="0.7"/>
    <circle cx="350" cy="470" r="3" fill="#d4af37" opacity="0.7"/>
</svg>