<svg viewBox="0 0 400 500" xmlns="http://www.w3.org/2000/svg">
    <!-- Vacation theme background with gradient -->
    <defs>
        <linearGradient id="vacationSky" x1="0%" y1="0%" x2="0%" y2="100%">
            <stop offset="0%" style="stop-color:#87ceeb;stop-opacity:1" />
            <stop offset="100%" style="stop-color:#e0f6ff;stop-opacity:1" />
        </linearGradient>
        <filter id="vacationShadow" x="-20%" y="-20%" width="140%" height="140%">
            <feDropShadow dx="2" dy="4" stdDeviation="6" flood-color="#00000020"/>
        </filter>
    </defs>
    
    <!-- Sky background -->
    <rect x="0" y="0" width="400" height="500" fill="url(#vacationSky)"/>
    
    <!-- Main photo frame -->
    <rect x="25" y="60" width="350" height="280" fill="#ffffff" stroke="#ffd700" stroke-width="4" rx="12" filter="url(#vacationShadow)"/>
    <rect id="Image1" x="30" y="65" width="340" height="270" fill="#e8e8e8" rx="8"/>
    
    <!-- Palm tree in corner -->
    <g transform="translate(320, 25)">
        <!-- Palm tree trunk -->
        <rect x="12" y="15" width="6" height="25" fill="#8b4513" rx="3"/>
        
        <!-- Palm fronds -->
        <path d="M 8 15 Q 15 8 22 15" fill="transparent" stroke="#228b22" stroke-width="3" stroke-linecap="round"/>
        <path d="M 8 18 Q 15 10 22 18" fill="transparent" stroke="#228b22" stroke-width="3" stroke-linecap="round"/>
        <path d="M 10 20 Q 15 12 20 20" fill="transparent" stroke="#228b22" stroke-width="2" stroke-linecap="round"/>
        
        <!-- Coconuts -->
        <circle cx="18" cy="16" r="2" fill="#8b4513"/>
        <circle cx="20" cy="18" r="1.5" fill="#8b4513"/>
    </g>
    
    <!-- Sun in corner -->
    <g transform="translate(30, 25)">
        <circle cx="15" cy="15" r="8" fill="#ffd700"/>
        <!-- Sun rays -->
        <line x1="15" y1="3" x2="15" y2="7" stroke="#ffd700" stroke-width="2" stroke-linecap="round"/>
        <line x1="15" y1="23" x2="15" y2="27" stroke="#ffd700" stroke-width="2" stroke-linecap="round"/>
        <line x1="3" y1="15" x2="7" y2="15" stroke="#ffd700" stroke-width="2" stroke-linecap="round"/>
        <line x1="23" y1="15" x2="27" y2="15" stroke="#ffd700" stroke-width="2" stroke-linecap="round"/>
        <line x1="8.5" y1="8.5" x2="10.5" y2="10.5" stroke="#ffd700" stroke-width="2" stroke-linecap="round"/>
        <line x1="19.5" y1="19.5" x2="21.5" y2="21.5" stroke="#ffd700" stroke-width="2" stroke-linecap="round"/>
        <line x1="21.5" y1="8.5" x2="19.5" y2="10.5" stroke="#ffd700" stroke-width="2" stroke-linecap="round"/>
        <line x1="10.5" y1="19.5" x2="8.5" y2="21.5" stroke="#ffd700" stroke-width="2" stroke-linecap="round"/>
    </g>
    
    <!-- Text area -->
    <rect x="25" y="360" width="350" height="110" fill="rgba(255,255,255,0.9)" stroke="#ffd700" stroke-width="2" rx="10"/>
    
    <!-- Vacation text -->
    <text id="Text1" x="200" y="390" text-anchor="middle" font-family="Arial, sans-serif" font-size="22" font-weight="bold" fill="#ff6347">Paradise Memories</text>
    <text id="Text2" x="200" y="415" text-anchor="middle" font-family="Arial, sans-serif" font-size="14" font-style="italic" fill="#4682b4">Under the sun</text>
    
    <!-- Decorative waves at bottom -->
    <path d="M 0 480 Q 100 470 200 480 T 400 480 L 400 500 L 0 500 Z" fill="#87ceeb" opacity="0.6"/>
    <path d="M 0 485 Q 80 475 160 485 T 400 485 L 400 500 L 0 500 Z" fill="#b0e0e6" opacity="0.8"/>
</svg>